<svg width="100%" height="100%" viewBox="0 0 800 600" fill="none" xmlns="http://www.w3.org/2000/svg" role="img" aria-labelledby="title desc">
  <title id="title">Profesional no encontrado</title>
  <desc id="desc">Ilustración de una lupa buscando un perfil médico, indicando que no se han encontrado resultados.</desc>

  <!-- Fondo suave -->
  <rect width="800" height="600" rx="24" fill="#FFFFFF"/>
  <g opacity="0.5">
    <ellipse cx="120" cy="120" rx="120" ry="60" fill="#E8F1FF"/>
    <ellipse cx="720" cy="160" rx="140" ry="70" fill="#E8F1FF"/>
    <ellipse cx="640" cy="520" rx="160" ry="70" fill="#E8F1FF"/>
    <ellipse cx="200" cy="500" rx="180" ry="70" fill="#E8F1FF"/>
  </g>

  <!-- Tarjeta/perfil -->
  <g transform="translate(210,150)">
    <rect x="0" y="0" width="340" height="260" rx="18" fill="#FFFFFF" stroke="#276EF1" stroke-width="2"/>
    <!-- Avatar -->
    <circle cx="85" cy="90" r="40" fill="#E8F1FF" stroke="#276EF1" stroke-width="2"/>
    <!-- Cruz de salud dentro del avatar -->
    <path d="M85 72v36M67 90h36" stroke="#276EF1" stroke-width="6" stroke-linecap="round"/>
    <!-- Líneas de texto -->
    <rect x="150" y="60" width="150" height="12" rx="6" fill="#E8F1FF"/>
    <rect x="150" y="86"  width="120" height="10" rx="5" fill="#E8F1FF"/>
    <rect x="150" y="110" width="170" height="10" rx="5" fill="#E8F1FF"/>
    <!-- Badges -->
    <rect x="36" y="160" width="90" height="24" rx="12" fill="#E8F1FF"/>
    <rect x="140" y="160" width="110" height="24" rx="12" fill="#E8F1FF"/>
    <rect x="260" y="160" width="60" height="24" rx="12" fill="#E8F1FF"/>
    <!-- Botón fantasma -->
    <rect x="110" y="206" width="120" height="36" rx="10" fill="#276EF1" opacity="0.08"/>
  </g>

  <!-- Lupa principal buscando el perfil -->
  <g transform="translate(440,250)">
    <!-- Círculo de la lupa -->
    <circle cx="110" cy="70" r="64" fill="#FFFFFF" stroke="#276EF1" stroke-width="6"/>
    <!-- Reflejo -->
    <path d="M72 42c14-14 34-22 54-22" stroke="#E8F1FF" stroke-width="8" stroke-linecap="round"/>
    <!-- Mango -->
    <rect x="165" y="118" width="110" height="18" rx="9" fill="#276EF1" transform="rotate(35 165 118)"/>
    <!-- Detalle naranja -->
    <circle cx="110" cy="70" r="8" fill="#FF8800"/>
    <!-- Carita triste sutil (sin resultados) -->
    <circle cx="92" cy="62" r="5" fill="#276EF1"/>
    <circle cx="128" cy="62" r="5" fill="#276EF1"/>
    <path d="M94 84c12-8 24-8 36 0" stroke="#276EF1" stroke-width="4" stroke-linecap="round"/>
  </g>

  <!-- Indicadores flotantes (chips de categorías) -->
  <g opacity="0.9">
    <rect x="520" y="120" width="120" height="30" rx="15" fill="#276EF1" opacity="0.1"/>
    <circle cx="538" cy="135" r="6" fill="#FF8800"/>
    <rect x="555" y="130" width="70" height="10" rx="5" fill="#276EF1" opacity="0.45"/>

    <rect x="100" y="360" width="140" height="32" rx="16" fill="#276EF1" opacity="0.1"/>
    <circle cx="118" cy="376" r="6" fill="#FF8800"/>
    <rect x="135" y="370" width="90" height="12" rx="6" fill="#276EF1" opacity="0.45"/>

    <rect x="610" y="380" width="150" height="34" rx="17" fill="#276EF1" opacity="0.1"/>
    <circle cx="630" cy="397" r="6" fill="#FF8800"/>
    <rect x="648" y="390" width="98" height="12" rx="6" fill="#276EF1" opacity="0.45"/>
  </g>

  <!-- Llamado sutil a acción (banda inferior) -->
  <g transform="translate(230,450)">
    <rect x="0" y="0" width="340" height="60" rx="14" fill="#FFFFFF" stroke="#E8F1FF"/>
    <circle cx="30" cy="30" r="10" fill="#FF8800"/>
    <rect x="50" y="20" width="210" height="12" rx="6" fill="#E8F1FF"/>
    <rect x="50" y="38" width="150" height="10" rx="5" fill="#E8F1FF"/>
    <rect x="270" y="14" width="60" height="32" rx="10" fill="#276EF1" opacity="0.1"/>
  </g>
</svg>
